<?xml version="1.0" encoding="UTF-8"?><svg id="Layer_1" xmlns="http://www.w3.org/2000/svg" viewBox="0 0 553.81 199.19"><defs><style>.cls-1{fill:#1c1c1b;}.cls-1,.cls-2,.cls-3,.cls-4,.cls-5{stroke-width:0px;}.cls-2{fill:#9f358b;}.cls-3{fill:#009eb0;}.cls-4{fill:#f00023;}.cls-5{fill:#004f9f;}</style></defs><path class="cls-5" d="m44.73,122.66c7.34,7.8,19.6,8.17,27.4.83l25.53-24.03-16.28-17.3-39.64,37.31,3,3.18Z"/><path class="cls-5" d="m5.27,80.74l16.34,17.36,17.3-16.28-13.34-14.18,43.6-41.04,49.75,52.85,3.3-3.11c7.79-7.34,8.16-19.6.83-27.4L83.59,7.02c-7.34-7.8-19.6-8.17-27.4-.83L6.1,53.34c-7.8,7.34-8.17,19.6-.83,27.4Z"/><path class="cls-2" d="m122.66,154.31c7.79-7.34,8.17-19.6.83-27.4l-24.03-25.53-17.3,16.28,37.31,39.64,3.18-3Z"/><path class="cls-2" d="m80.74,193.77l17.36-16.34-16.28-17.3-14.18,13.34-41.04-43.6,52.85-49.75-3.11-3.3c-7.34-7.8-19.6-8.17-27.4-.83L7.02,115.45c-7.8,7.34-8.17,19.6-.83,27.4l47.15,50.09c7.34,7.79,19.6,8.17,27.4.83Z"/><path class="cls-3" d="m154.31,76.38c-7.34-7.8-19.6-8.17-27.4-.83l-25.53,24.03,16.28,17.3,39.64-37.31-3-3.18Z"/><path class="cls-3" d="m193.77,118.3l-16.34-17.36-17.3,16.28,13.34,14.17-43.61,41.04-49.75-52.85-3.3,3.11c-7.79,7.34-8.17,19.6-.83,27.4l39.46,41.92c7.34,7.8,19.6,8.17,27.4.83l50.09-47.15c7.8-7.34,8.17-19.6.83-27.4"/><path class="cls-4" d="m76.38,44.73c-7.8,7.34-8.17,19.6-.83,27.4l24.03,25.52,17.3-16.28-37.31-39.64-3.18,3Z"/><path class="cls-4" d="m118.3,5.27l-17.36,16.34,16.28,17.3,14.17-13.34,41.04,43.6-52.85,49.75,3.11,3.3c7.34,7.79,19.6,8.17,27.4.83l41.92-39.46c7.79-7.34,8.17-19.6.83-27.4L145.7,6.1c-7.33-7.8-19.6-8.17-27.4-.83"/><path class="cls-1" d="m189.7,199.19c-4.81,0-8.73-3.99-8.73-8.9s3.92-8.9,8.73-8.9,8.78,3.99,8.78,8.9-3.94,8.9-8.78,8.9Zm0-16.52c-1.99,0-3.85.8-5.22,2.26-1.35,1.43-2.09,3.34-2.09,5.35s.74,3.92,2.09,5.35c1.37,1.46,3.22,2.26,5.22,2.26,4.05,0,7.35-3.42,7.35-7.62s-3.3-7.62-7.35-7.62Zm4.67,12.98h-1.74l-2.91-4.79h-2.17v4.79h-1.28v-10.53h4.01c2.26,0,3.36.93,3.36,2.86s-1.22,2.59-2.38,2.83l3.11,4.84Zm-6.82-6.03h1.79c1.71,0,2.92-.12,2.92-1.67,0-1.08-.74-1.6-2.27-1.6h-2.44v3.27Z"/><path class="cls-3" d="m219.11,48.21h6.03v65.07c0,13.65,3.17,22.06,11.11,28.73,5.71,4.92,12.22,7.46,19.36,7.46,16.51,0,30-13.81,30-30.63s-13.17-30.79-30-30.79c-9.21,0-15.87,3.17-24.92,11.9v-7.46c6.98-6.67,15.71-10.16,24.92-10.16,20,0,36.34,16.19,36.34,36.03s-16.19,36.82-36.5,36.82c-21.43,0-36.34-16.51-36.34-39.84V48.21Z"/><path class="cls-3" d="m301.32,154.06v-5.87h37.3c10.32,0,16.19-1.75,20.31-6.03,3.17-3.33,5.08-8.57,5.08-13.65,0-5.87-2.54-11.9-6.82-15.39-3.49-3.02-7.78-5.08-16.66-7.94l-12.86-4.13c-11.27-3.65-16.82-6.82-21.27-12.06-3.65-4.29-5.4-9.68-5.4-15.87,0-16.35,10.79-24.92,31.27-24.92h32.85v5.87h-32.22c-11.27,0-16.51,1.59-20.79,6.19-2.86,3.17-4.44,7.46-4.44,12.22,0,5.71,2.22,10.95,6.03,14.28,3.65,3.17,7.78,5.24,16.03,7.78l12.85,4.13c12.54,4.13,18.09,7.3,22.7,13.33,3.49,4.6,5.4,10.63,5.4,16.66,0,9.52-4.92,17.93-13.01,22.22-4.76,2.38-8.89,3.17-17.77,3.17h-38.57Z"/><path class="cls-3" d="m394,154.06h-6.35V48.21h19.2c13.97,0,23.01,2.38,32.54,8.25,15.39,9.68,24.76,26.82,24.76,45.55,0,17.3-8.73,33.96-22.69,43.64-8.57,5.87-17.62,8.41-30.63,8.41h-11.74v-5.87h9.52c12.7,0,18.57-1.27,26.66-6.19,4.13-2.38,7.94-5.55,11.11-9.21,7.3-8.41,11.11-18.73,11.11-30.47,0-16.82-8.09-31.74-21.58-40.63-8.73-5.55-16.82-7.62-30.47-7.62h-11.43v99.98Z"/><path class="cls-3" d="m483.67,154.06h-6.35V48.21h19.2c13.97,0,23.01,2.38,32.53,8.25,15.39,9.68,24.76,26.82,24.76,45.55,0,17.3-8.73,33.96-22.7,43.64-8.57,5.87-17.62,8.41-30.63,8.41h-11.75v-5.87h9.52c12.7,0,18.57-1.27,26.66-6.19,4.13-2.38,7.94-5.55,11.11-9.21,7.3-8.41,11.11-18.73,11.11-30.47,0-16.82-8.09-31.74-21.58-40.63-8.73-5.55-16.82-7.62-30.47-7.62h-11.43v99.98Z"/></svg>